<svg id="visual" viewBox="0 0 900 600" width="900" height="600" xmlns="http://www.w3.org/2000/svg" xmlns:xlink="http://www.w3.org/1999/xlink" version="1.1"><path d="M0 174L21.5 175.8C43 177.7 86 181.3 128.8 179.8C171.7 178.3 214.3 171.7 257.2 186.7C300 201.7 343 238.3 385.8 254.8C428.7 271.3 471.3 267.7 514.2 261.3C557 255 600 246 642.8 236.3C685.7 226.7 728.3 216.3 771.2 223.3C814 230.3 857 254.7 878.5 266.8L900 279L900 601L878.5 601C857 601 814 601 771.2 601C728.3 601 685.7 601 642.8 601C600 601 557 601 514.2 601C471.3 601 428.7 601 385.8 601C343 601 300 601 257.2 601C214.3 601 171.7 601 128.8 601C86 601 43 601 21.5 601L0 601Z" fill="#69fabf"></path><path d="M0 217L21.5 240.2C43 263.3 86 309.7 128.8 318.3C171.7 327 214.3 298 257.2 275.3C300 252.7 343 236.3 385.8 248.5C428.7 260.7 471.3 301.3 514.2 321.7C557 342 600 342 642.8 320.5C685.7 299 728.3 256 771.2 232C814 208 857 203 878.5 200.5L900 198L900 601L878.5 601C857 601 814 601 771.2 601C728.3 601 685.7 601 642.8 601C600 601 557 601 514.2 601C471.3 601 428.7 601 385.8 601C343 601 300 601 257.2 601C214.3 601 171.7 601 128.8 601C86 601 43 601 21.5 601L0 601Z" fill="#22e3d2"></path><path d="M0 352L21.5 349.3C43 346.7 86 341.3 128.8 335.7C171.7 330 214.3 324 257.2 331.7C300 339.3 343 360.7 385.8 371.8C428.7 383 471.3 384 514.2 388.8C557 393.7 600 402.3 642.8 408.5C685.7 414.7 728.3 418.3 771.2 401.8C814 385.3 857 348.7 878.5 330.3L900 312L900 601L878.5 601C857 601 814 601 771.2 601C728.3 601 685.7 601 642.8 601C600 601 557 601 514.2 601C471.3 601 428.7 601 385.8 601C343 601 300 601 257.2 601C214.3 601 171.7 601 128.8 601C86 601 43 601 21.5 601L0 601Z" fill="#00cad9"></path><path d="M0 400L21.5 405.8C43 411.7 86 423.3 128.8 431.8C171.7 440.3 214.3 445.7 257.2 436.2C300 426.7 343 402.3 385.8 395.2C428.7 388 471.3 398 514.2 407.3C557 416.7 600 425.3 642.8 420C685.7 414.7 728.3 395.3 771.2 397.3C814 399.3 857 422.7 878.5 434.3L900 446L900 601L878.5 601C857 601 814 601 771.2 601C728.3 601 685.7 601 642.8 601C600 601 557 601 514.2 601C471.3 601 428.7 601 385.8 601C343 601 300 601 257.2 601C214.3 601 171.7 601 128.8 601C86 601 43 601 21.5 601L0 601Z" fill="#00afd4"></path><path d="M0 499L21.5 506.3C43 513.7 86 528.3 128.8 535.3C171.7 542.3 214.3 541.7 257.2 539.2C300 536.7 343 532.3 385.8 530C428.7 527.7 471.3 527.3 514.2 526.3C557 525.3 600 523.7 642.8 522.3C685.7 521 728.3 520 771.2 512.3C814 504.7 857 490.3 878.5 483.2L900 476L900 601L878.5 601C857 601 814 601 771.2 601C728.3 601 685.7 601 642.8 601C600 601 557 601 514.2 601C471.3 601 428.7 601 385.8 601C343 601 300 601 257.2 601C214.3 601 171.7 601 128.8 601C86 601 43 601 21.5 601L0 601Z" fill="#2493c7"></path></svg>