<svg id="visual" viewBox="0 0 900 600" width="900" height="600" xmlns="http://www.w3.org/2000/svg" xmlns:xlink="http://www.w3.org/1999/xlink" version="1.1"><rect x="0" y="0" width="900" height="600" fill="#FFFFFF"></rect><path d="M0 264L37.5 262.7C75 261.3 150 258.7 225 256.5C300 254.3 375 252.7 450 267.2C525 281.7 600 312.3 675 315.3C750 318.3 825 293.7 862.5 281.3L900 269L900 601L862.5 601C825 601 750 601 675 601C600 601 525 601 450 601C375 601 300 601 225 601C150 601 75 601 37.5 601L0 601Z" fill="#02f6a5"></path><path d="M0 318L37.5 328.2C75 338.3 150 358.7 225 364C300 369.3 375 359.7 450 360C525 360.3 600 370.7 675 366.2C750 361.7 825 342.3 862.5 332.7L900 323L900 601L862.5 601C825 601 750 601 675 601C600 601 525 601 450 601C375 601 300 601 225 601C150 601 75 601 37.5 601L0 601Z" fill="#00ef98"></path><path d="M0 391L37.5 395.8C75 400.7 150 410.3 225 413.5C300 416.7 375 413.3 450 412.5C525 411.7 600 413.3 675 406.8C750 400.3 825 385.7 862.5 378.3L900 371L900 601L862.5 601C825 601 750 601 675 601C600 601 525 601 450 601C375 601 300 601 225 601C150 601 75 601 37.5 601L0 601Z" fill="#00e98a"></path><path d="M0 452L37.5 454.8C75 457.7 150 463.3 225 455.7C300 448 375 427 450 426C525 425 600 444 675 447C750 450 825 437 862.5 430.5L900 424L900 601L862.5 601C825 601 750 601 675 601C600 601 525 601 450 601C375 601 300 601 225 601C150 601 75 601 37.5 601L0 601Z" fill="#01e27d"></path><path d="M0 507L37.5 496.5C75 486 150 465 225 458C300 451 375 458 450 465.8C525 473.7 600 482.3 675 482.3C750 482.3 825 473.7 862.5 469.3L900 465L900 601L862.5 601C825 601 750 601 675 601C600 601 525 601 450 601C375 601 300 601 225 601C150 601 75 601 37.5 601L0 601Z" fill="#08db6f"></path><path d="M0 532L37.5 523.2C75 514.3 150 496.7 225 496.3C300 496 375 513 450 520.7C525 528.3 600 526.7 675 521.8C750 517 825 509 862.5 505L900 501L900 601L862.5 601C825 601 750 601 675 601C600 601 525 601 450 601C375 601 300 601 225 601C150 601 75 601 37.5 601L0 601Z" fill="#0fd561"></path><path d="M0 538L37.5 537.3C75 536.7 150 535.3 225 538.7C300 542 375 550 450 552C525 554 600 550 675 551.7C750 553.3 825 560.7 862.5 564.3L900 568L900 601L862.5 601C825 601 750 601 675 601C600 601 525 601 450 601C375 601 300 601 225 601C150 601 75 601 37.5 601L0 601Z" fill="#16ce53"></path></svg>