<svg id="visual" viewBox="0 0 900 600" width="900" height="600" xmlns="http://www.w3.org/2000/svg" xmlns:xlink="http://www.w3.org/1999/xlink" version="1.1"><path d="M0 214L21.5 219.2C43 224.3 86 234.7 128.8 228.7C171.7 222.7 214.3 200.3 257.2 185.7C300 171 343 164 385.8 177.7C428.7 191.3 471.3 225.7 514.2 240C557 254.3 600 248.7 642.8 241.8C685.7 235 728.3 227 771.2 220C814 213 857 207 878.5 204L900 201L900 601L878.5 601C857 601 814 601 771.2 601C728.3 601 685.7 601 642.8 601C600 601 557 601 514.2 601C471.3 601 428.7 601 385.8 601C343 601 300 601 257.2 601C214.3 601 171.7 601 128.8 601C86 601 43 601 21.5 601L0 601Z" fill="#69fabf"></path><path d="M0 331L21.5 330C43 329 86 327 128.8 308.7C171.7 290.3 214.3 255.7 257.2 258.2C300 260.7 343 300.3 385.8 312.8C428.7 325.3 471.3 310.7 514.2 299C557 287.3 600 278.7 642.8 272.7C685.7 266.7 728.3 263.3 771.2 274.5C814 285.7 857 311.3 878.5 324.2L900 337L900 601L878.5 601C857 601 814 601 771.2 601C728.3 601 685.7 601 642.8 601C600 601 557 601 514.2 601C471.3 601 428.7 601 385.8 601C343 601 300 601 257.2 601C214.3 601 171.7 601 128.8 601C86 601 43 601 21.5 601L0 601Z" fill="#22e3d2"></path><path d="M0 422L21.5 412.3C43 402.7 86 383.3 128.8 369C171.7 354.7 214.3 345.3 257.2 349.2C300 353 343 370 385.8 365.3C428.7 360.7 471.3 334.3 514.2 321.8C557 309.3 600 310.7 642.8 308.8C685.7 307 728.3 302 771.2 295.8C814 289.7 857 282.3 878.5 278.7L900 275L900 601L878.5 601C857 601 814 601 771.2 601C728.3 601 685.7 601 642.8 601C600 601 557 601 514.2 601C471.3 601 428.7 601 385.8 601C343 601 300 601 257.2 601C214.3 601 171.7 601 128.8 601C86 601 43 601 21.5 601L0 601Z" fill="#00cad9"></path><path d="M0 425L21.5 425.2C43 425.3 86 425.7 128.8 428.3C171.7 431 214.3 436 257.2 442.3C300 448.7 343 456.3 385.8 445.3C428.7 434.3 471.3 404.7 514.2 387.8C557 371 600 367 642.8 372.3C685.7 377.7 728.3 392.3 771.2 410.7C814 429 857 451 878.5 462L900 473L900 601L878.5 601C857 601 814 601 771.2 601C728.3 601 685.7 601 642.8 601C600 601 557 601 514.2 601C471.3 601 428.7 601 385.8 601C343 601 300 601 257.2 601C214.3 601 171.7 601 128.8 601C86 601 43 601 21.5 601L0 601Z" fill="#00afd4"></path><path d="M0 523L21.5 522.7C43 522.3 86 521.7 128.8 519C171.7 516.3 214.3 511.7 257.2 513.5C300 515.3 343 523.7 385.8 529.2C428.7 534.7 471.3 537.3 514.2 534.8C557 532.3 600 524.7 642.8 521.7C685.7 518.7 728.3 520.3 771.2 522.8C814 525.3 857 528.7 878.5 530.3L900 532L900 601L878.5 601C857 601 814 601 771.2 601C728.3 601 685.7 601 642.8 601C600 601 557 601 514.2 601C471.3 601 428.7 601 385.8 601C343 601 300 601 257.2 601C214.3 601 171.7 601 128.8 601C86 601 43 601 21.5 601L0 601Z" fill="#2493c7"></path></svg>