<svg xmlns="http://www.w3.org/2000/svg" viewBox="0 0 30 30"><g transform="translate(.001 3.5)"><path fill="#bde5f8" d="m 10.055328,4.003187 a 0.99999993,0.99999993 0 0 1 0.03402,0.00378 C 9.993348,3.997517 9.8981039,4.002427 9.8043716,4.020573 A 0.99999993,0.99999993 0 0 1 10.054194,4.003187 Z M 9.8055014,4.020573 C 9.7102574,4.039093 9.6187928,4.071068 9.5318636,4.116271 A 0.99999993,0.99999993 0 0 1 9.8055014,4.020573 Z M 9.5318636,4.1162705 C 9.4453125,4.161587 9.3636747,4.219187 9.2914857,4.2901665 A 0.99999993,0.99999993 0 0 1 9.5318636,4.1162705 Z M 10.098264,4.0088563 a 0.99999993,0.99999993 0 0 1 0.283086,0.070299 c -0.09184,-0.038589 -0.187464,-0.060208 -0.283086,-0.070299 z m 0.283086,0.070299 A 0.99999993,0.99999993 0 0 1 10.629665,4.227653 C 10.555586,4.1676721 10.472815,4.1166484 10.38135,4.0791553 Z m 0.259654,0.158211 a 0.99999993,0.99999993 0 0 1 0.189354,0.2090079 C 10.777823,4.3684784 10.713949,4.2981791 10.641004,4.2373663 Z m 0.189354,0.2090079 A 0.99999993,0.99999993 0 0 1 10.95546,4.7080689 C 10.925224,4.6148658 10.884405,4.526576 10.830358,4.4463742 Z m 0.125102,0.2616945 a 0.99999993,0.99999993 0 0 1 0.04498,0.292989 C 10.999946,4.9001445 10.985319,4.801272 10.95546,4.7080687 Z m 5.056706,3.2930003 a 8.9999999,8.9999999 0 0 1 8.990173,8.998099 v 0.999999 a 1.0009512,1.0009512 0 0 1 -2.001902,0 V 16.999285 A 6.9999998,6.9999998 0 0 0 16.000449,9.9992865 H 11.000437 V 8.0011863 h 5.000012 a 8.9999999,8.9999999 0 0 1 0.01134,0 z M 5.2914606,8.2901652 c -0.096756,0.096 -0.1693229,0.2076095 -0.2188347,0.3260977 A 0.99999993,0.99999993 0 0 1 5.2914606,8.2901652 Z m -0.224504,0.3398173 c -0.04611,0.1156158 -0.069165,0.238715 -0.070299,0.3612851 a 0.99999993,0.99999993 0 0 1 0.070299,-0.3612851 z m -0.070299,0.3809008 c 0.00121,0.1252158 0.022677,0.249411 0.072189,0.3672189 A 0.99999993,0.99999993 0 0 1 4.9966576,9.0108833 Z m 0.072189,0.3672189 c 0.049134,0.1209071 0.1239685,0.2342173 0.2226142,0.3319937 A 0.99999993,0.99999993 0 0 1 5.0688466,9.3781022 Z M 11.00055,12.999203 a 0.99999993,0.99999993 0 0 1 -0.04498,0.290986 c 0.03024,-0.09271 0.0446,-0.19079 0.04498,-0.290986 z m -0.04498,0.294917 a 0.99999993,0.99999993 0 0 1 -0.125102,0.259691 c 0.05367,-0.07971 0.096,-0.167206 0.125102,-0.259691 z m -0.125102,0.259691 a 0.99999993,0.99999993 0 0 1 -0.193134,0.212901 c 0.07446,-0.06149 0.139842,-0.13338 0.193134,-0.212901 z m -1.5389863,0.156284 c 0.09411,0.0935 0.2056063,0.165618 0.3261732,0.21479 a 0.99999993,0.99999993 0 0 1 -0.3261732,-0.21479 z m 0.3261732,0.21479 c 0.120567,0.04929 0.2498268,0.07499 0.3827901,0.07431 a 0.99999993,0.99999993 0 0 1 -0.3827901,-0.07431 z m 0.3827901,0.07431 c 0.13115,0.0033 0.2623,-0.02419 0.380788,-0.08009 a 0.83999999,0.83999999 0 0 1 -0.380788,0.08009 z m 0.380788,-0.08009 c 0.0926,-0.03798 0.176882,-0.08731 0.252094,-0.148497 a 0.99999993,0.99999993 0 0 1 -0.252094,0.148497 z"/><path fill="#ff4b3d" d="m 5.291385,9.7102131 4.0002519,4.0000249 c 0.1885984,0.187087 0.4440945,0.291402 0.7097951,0.28989 0.13115,0.0034 0.261543,-0.02419 0.380221,-0.08013 0.373417,-0.153449 0.617877,-0.516344 0.619842,-0.920013 0,-2.666581 0,-5.3331661 0,-7.9997475 C 10.99953,4.5965728 10.75507,4.2336815 10.381653,4.0802289 10.009369,3.9236431 9.5791833,4.0065659 9.2916369,4.2903706 L 5.291385,8.2903958 c -0.3943937,0.3911735 -0.3943937,1.0287949 0,1.4199685 z"/></g></svg>