<svg xmlns="http://www.w3.org/2000/svg" viewBox="0 0 24 24"><g transform="matrix(3.77814 0 0 3.78007 155.109 335.024)"><path fill="#ceeefb" d="m -143.16406,-1416.498 c -4.41828,0 -8,3.5817 -8,8 0,1.3333 2,1.3333 2,0 0,-3.3137 2.68629,-6 6,-6 h 3 v -2 z" transform="translate(0 288.533) scale(.26458)"/><path fill="#1eaae1" d="m -35.838866,-86.171707 -0.79375,-0.79375 c -0.07607,-0.07509 -0.189854,-0.09702 -0.28839,-0.0556 -0.0988,0.04058 -0.163513,0.136598 -0.16405,0.24341 0,0.529167 0,1.058333 0,1.5875 5.33e-4,0.106816 0.06524,0.202834 0.16405,0.24342 0.0314,0.01482 0.06583,0.02208 0.10054,0.0212 0.07032,4.13e-4 0.137914,-0.02719 0.18785,-0.0767 l 0.79375,-0.79375 c 0.104352,-0.103499 0.104352,-0.272211 0,-0.37571 z"/></g></svg>