<svg id="visual" viewBox="0 0 900 600" width="900" height="600" xmlns="http://www.w3.org/2000/svg" xmlns:xlink="http://www.w3.org/1999/xlink" version="1.1"><path d="M0 169L13.7 173C27.3 177 54.7 185 82 189C109.3 193 136.7 193 163.8 175C191 157 218 121 245.2 140C272.3 159 299.7 233 327 244C354.3 255 381.7 203 409 171C436.3 139 463.7 127 491 136C518.3 145 545.7 175 573 169C600.3 163 627.7 121 654.8 128C682 135 709 191 736.2 198C763.3 205 790.7 163 818 150C845.3 137 872.7 153 886.3 161L900 169L900 0L886.3 0C872.7 0 845.3 0 818 0C790.7 0 763.3 0 736.2 0C709 0 682 0 654.8 0C627.7 0 600.3 0 573 0C545.7 0 518.3 0 491 0C463.7 0 436.3 0 409 0C381.7 0 354.3 0 327 0C299.7 0 272.3 0 245.2 0C218 0 191 0 163.8 0C136.7 0 109.3 0 82 0C54.7 0 27.3 0 13.7 0L0 0Z" fill="#78fbd7"></path><path d="M0 259L13.7 262C27.3 265 54.7 271 82 273C109.3 275 136.7 273 163.8 256C191 239 218 207 245.2 221C272.3 235 299.7 295 327 309C354.3 323 381.7 291 409 263C436.3 235 463.7 211 491 217C518.3 223 545.7 259 573 258C600.3 257 627.7 219 654.8 220C682 221 709 261 736.2 270C763.3 279 790.7 257 818 255C845.3 253 872.7 271 886.3 280L900 289L900 167L886.3 159C872.7 151 845.3 135 818 148C790.7 161 763.3 203 736.2 196C709 189 682 133 654.8 126C627.7 119 600.3 161 573 167C545.7 173 518.3 143 491 134C463.7 125 436.3 137 409 169C381.7 201 354.3 253 327 242C299.7 231 272.3 157 245.2 138C218 119 191 155 163.8 173C136.7 191 109.3 191 82 187C54.7 183 27.3 175 13.7 171L0 167Z" fill="#53f9cc"></path><path d="M0 313L13.7 316C27.3 319 54.7 325 82 334C109.3 343 136.7 355 163.8 345C191 335 218 303 245.2 315C272.3 327 299.7 383 327 388C354.3 393 381.7 347 409 311C436.3 275 463.7 249 491 264C518.3 279 545.7 335 573 344C600.3 353 627.7 315 654.8 313C682 311 709 345 736.2 346C763.3 347 790.7 315 818 313C845.3 311 872.7 339 886.3 353L900 367L900 287L886.3 278C872.7 269 845.3 251 818 253C790.7 255 763.3 277 736.2 268C709 259 682 219 654.8 218C627.7 217 600.3 255 573 256C545.7 257 518.3 221 491 215C463.7 209 436.3 233 409 261C381.7 289 354.3 321 327 307C299.7 293 272.3 233 245.2 219C218 205 191 237 163.8 254C136.7 271 109.3 273 82 271C54.7 269 27.3 263 13.7 260L0 257Z" fill="#04f7c1"></path><path d="M0 445L13.7 444C27.3 443 54.7 441 82 455C109.3 469 136.7 499 163.8 507C191 515 218 501 245.2 502C272.3 503 299.7 519 327 525C354.3 531 381.7 527 409 512C436.3 497 463.7 471 491 471C518.3 471 545.7 497 573 504C600.3 511 627.7 499 654.8 497C682 495 709 503 736.2 507C763.3 511 790.7 511 818 512C845.3 513 872.7 515 886.3 516L900 517L900 365L886.3 351C872.7 337 845.3 309 818 311C790.7 313 763.3 345 736.2 344C709 343 682 309 654.8 311C627.7 313 600.3 351 573 342C545.7 333 518.3 277 491 262C463.7 247 436.3 273 409 309C381.7 345 354.3 391 327 386C299.7 381 272.3 325 245.2 313C218 301 191 333 163.8 343C136.7 353 109.3 341 82 332C54.7 323 27.3 317 13.7 314L0 311Z" fill="#01d6a7"></path><path d="M0 601L13.7 601C27.3 601 54.7 601 82 601C109.3 601 136.7 601 163.8 601C191 601 218 601 245.2 601C272.3 601 299.7 601 327 601C354.3 601 381.7 601 409 601C436.3 601 463.7 601 491 601C518.3 601 545.7 601 573 601C600.3 601 627.7 601 654.8 601C682 601 709 601 736.2 601C763.3 601 790.7 601 818 601C845.3 601 872.7 601 886.3 601L900 601L900 515L886.3 514C872.7 513 845.3 511 818 510C790.7 509 763.3 509 736.2 505C709 501 682 493 654.8 495C627.7 497 600.3 509 573 502C545.7 495 518.3 469 491 469C463.7 469 436.3 495 409 510C381.7 525 354.3 529 327 523C299.7 517 272.3 501 245.2 500C218 499 191 513 163.8 505C136.7 497 109.3 467 82 453C54.7 439 27.3 441 13.7 442L0 443Z" fill="#00b58e"></path></svg>